<svg xmlns="http://www.w3.org/2000/svg" viewBox="0 0 48 48" role="img" aria-label="Google">
  <rect width="48" height="48" rx="8" fill="#fff"/>
  <path fill="#EA4335" d="M24 20.3v7.4h10.3c-1 5-5.3 7.4-10.3 7.4-6 0-10.9-4.9-10.9-10.9S18 13.3 24 13.3c3.4 0 6.1 1.4 8 3.1l5.4-5.4C34 7.8 29.3 6 24 6 15.5 6 8.6 12.9 8.6 21.4S15.5 36.8 24 36.8c8.4 0 14.8-4.9 14.8-14.8 0-1-.1-2-.3-2.9H24z"/>
  <path fill="#34A853" d="M10.9 14.1l6 4.4C18.5 15.1 21.1 13.3 24 13.3c3.4 0 6.1 1.4 8 3.1l5.4-5.4C34 7.8 29.3 6 24 6 18.1 6 12.9 8.7 10.9 14.1z"/>
  <path fill="#FBBC05" d="M24 36.8c4.9 0 9-1.6 12-4.4l-5.5-4.3c-1.5 1-3.4 1.7-6.5 1.7-4.9 0-9.1-3.3-10.6-7.8l-6 4.6c2 5.9 7.6 10.2 16.6 10.2z"/>
  <path fill="#4285F4" d="M38.5 21.4c0-1-.1-2-.3-2.9H24v7.4h10.3c-.5 2.5-2.1 4.6-4.3 6l5.5 4.3c3.2-3 5-7.4 5-14.8z"/>
</svg>
